<?xml version="1.0" standalone="no"?>
<!DOCTYPE svg PUBLIC "-//W3C//DTD SVG 20010904//EN"
 "http://www.w3.org/TR/2001/REC-SVG-20010904/DTD/svg10.dtd">
<svg version="1.0" xmlns="http://www.w3.org/2000/svg"
 width="512.000000pt" height="512.000000pt" viewBox="0 0 512.000000 512.000000"
 preserveAspectRatio="xMidYMid meet">

<g transform="translate(0.000000,512.000000) scale(0.100000,-0.100000)"
fill="#000000" stroke="none">
<path d="M340 2560 l0 -2240 1810 0 1810 0 0 943 -1 942 -139 -270 c-76 -148
-167 -324 -202 -389 l-63 -120 -195 -114 c-107 -63 -209 -116 -225 -119 -41
-7 -74 21 -85 72 -4 22 -16 132 -26 245 l-17 205 476 924 477 925 0 618 0 618
-1810 0 -1810 0 0 -2240z m1270 1495 c32 -16 46 -51 36 -87 -3 -13 -101 -119
-219 -235 -178 -178 -218 -213 -242 -213 -23 0 -54 25 -167 137 -120 119 -138
141 -138 169 0 47 30 78 74 78 33 0 46 -10 131 -94 l95 -95 168 166 c203 202
205 204 262 174z m1786 -208 c29 -34 31 -66 3 -101 l-20 -26 -729 0 -729 0
-20 26 c-12 15 -21 37 -21 49 0 29 35 73 63 78 12 3 339 4 725 3 l704 -1 24
-28z m-1767 -643 c42 -54 37 -62 -196 -296 -200 -201 -220 -218 -252 -218 -32
0 -48 13 -168 133 -118 118 -133 137 -133 167 0 46 33 80 78 80 30 0 47 -12
131 -95 l97 -95 174 175 c163 163 177 175 212 175 28 0 42 -6 57 -26z m1766
-189 c33 -32 33 -78 0 -110 l-24 -25 -710 0 c-506 0 -717 3 -735 11 -36 17
-52 61 -36 99 7 17 20 35 29 40 10 6 301 10 734 10 l718 0 24 -25z m-1770
-640 c16 -16 25 -35 25 -57 0 -29 -23 -55 -212 -245 -167 -167 -220 -214 -246
-219 -31 -6 -38 -1 -172 132 -124 123 -140 142 -140 171 0 42 38 83 76 83 20
0 50 -23 126 -97 l98 -97 178 177 c157 156 182 177 211 177 21 0 41 -9 56 -25z
m1444 -176 c54 -19 69 -83 29 -126 l-21 -23 -574 0 -574 0 -24 25 c-14 13 -25
35 -25 47 0 30 26 67 54 78 33 13 1096 12 1135 -1z m-1440 -665 c42 -54 37
-62 -196 -296 -200 -201 -220 -218 -252 -218 -32 0 -48 13 -168 133 -123 123
-133 136 -133 170 0 49 28 77 76 77 33 0 47 -10 133 -95 l97 -95 174 175 c163
163 177 175 212 175 28 0 42 -6 57 -26z m1261 -189 c33 -35 31 -81 -4 -112
l-27 -23 -460 0 -461 0 -30 30 c-25 26 -29 36 -24 63 13 69 -4 67 515 67 l468
0 23 -25z"/>
<path d="M4462 4188 c-23 -44 -41 -82 -40 -83 9 -6 261 -135 264 -135 10 0 84
164 77 171 -12 12 -238 129 -249 129 -5 0 -28 -37 -52 -82z"/>
<path d="M4030 3355 c-172 -334 -308 -610 -304 -614 19 -17 253 -135 258 -130
6 6 626 1208 626 1214 0 5 -236 127 -256 133 -6 2 -152 -270 -324 -603z"/>
<path d="M3632 2582 c-5 -9 -105 -203 -222 -430 -117 -228 -209 -417 -204
-421 16 -14 254 -134 258 -130 8 8 447 862 444 864 -2 2 -62 32 -135 69 -119
59 -133 64 -141 48z"/>
<path d="M3183 1523 c4 -21 7 -55 7 -75 0 -21 5 -38 11 -38 15 0 119 63 119
72 0 4 -32 24 -71 44 l-72 36 6 -39z"/>
</g>
</svg>
